<svg xmlns="http://www.w3.org/2000/svg" xmlns:xlink="http://www.w3.org/1999/xlink" width="1400" zoomAndPan="magnify" viewBox="0 0 1050 374.999991" height="500" preserveAspectRatio="xMidYMid meet" version="1.0"><defs><g/><clipPath id="id1"><path d="M 160 41 L 650 41 L 650 350 L 160 350 Z M 160 41 " clip-rule="nonzero"/></clipPath><clipPath id="id2"><path d="M 122.03125 53.769531 L 524.738281 -68.117188 L 650.757812 348.230469 L 248.050781 470.117188 Z M 122.03125 53.769531 " clip-rule="nonzero"/></clipPath><clipPath id="id3"><path d="M 122.03125 53.769531 L 524.738281 -68.117188 L 650.757812 348.230469 L 248.050781 470.117188 Z M 122.03125 53.769531 " clip-rule="nonzero"/></clipPath></defs><g clip-path="url(#id1)"><g clip-path="url(#id2)"><g clip-path="url(#id3)"><path fill="#e11d48" d="M 192.1875 107.886719 C 191.753906 107.941406 191.75 108.175781 192.171875 108.59375 C 192.625 108.550781 192.625 108.316406 192.1875 107.886719 Z M 402.753906 305.214844 C 402.230469 304.789062 401.449219 304.867188 400.800781 304.804688 C 401.453125 304.941406 402.105469 305.078125 402.753906 305.214844 Z M 372.855469 306.476562 C 373.402344 306.925781 374.394531 306.949219 375.03125 307.074219 C 374.230469 306.691406 373.675781 306.148438 372.855469 306.476562 Z M 183.445312 58.183594 C 184.128906 57.265625 183.519531 56.355469 182.324219 56.539062 C 182.167969 57.347656 182.542969 57.894531 183.445312 58.183594 Z M 265.09375 76.59375 C 266.652344 76.773438 267.640625 75.957031 268.535156 74.929688 C 265.878906 74.804688 265.878906 74.804688 265.09375 76.59375 Z M 238.285156 97.636719 C 237.445312 98.5 237.042969 99.925781 235.796875 100.339844 C 238.453125 99.445312 240.285156 97.203125 242.332031 95.425781 C 240.894531 95.949219 239.371094 96.511719 238.285156 97.636719 Z M 175.96875 180.636719 C 177.855469 182.324219 179.816406 183.578125 182.398438 183.839844 C 181.347656 180.929688 179.0625 180.214844 175.96875 180.636719 Z M 422.332031 308.394531 C 417.910156 306.890625 412.296875 306.109375 407.640625 305.574219 C 412.359375 307.261719 417.332031 308.148438 422.332031 308.394531 Z M 224.402344 108.054688 C 227.578125 108.691406 230.421875 105.605469 231.9375 102.949219 C 229.011719 104 226.386719 105.636719 224.402344 108.054688 Z M 256.355469 214.660156 C 257.867188 217.773438 259.992188 220.332031 262.714844 222.457031 C 261.78125 219.136719 260.347656 214.878906 256.355469 214.660156 Z M 186.328125 183.871094 C 181.828125 184.898438 188.308594 188.183594 189.578125 188.96875 C 190.007812 186.960938 189.644531 183.117188 186.328125 183.871094 Z M 177.585938 99.707031 C 175.542969 101.425781 176.96875 107.417969 179.753906 107.5625 C 179.902344 106.601562 180.296875 97.433594 177.585938 99.707031 Z M 198.347656 194.457031 C 202.566406 192.648438 195.140625 188.949219 194.15625 188.660156 C 192.925781 190.800781 195.6875 195.601562 198.347656 194.457031 Z M 213.25 202.628906 C 211.363281 204.59375 220.480469 208.628906 221.40625 209.148438 C 221.285156 207.367188 214.992188 200.800781 213.25 202.628906 Z M 174.730469 169.058594 C 170.957031 170.972656 168.089844 176.59375 172.628906 179.085938 C 171.636719 175.53125 174.984375 172.574219 174.730469 169.058594 Z M 174.863281 122.746094 C 172.871094 124.429688 173.871094 129.78125 177.003906 129.46875 C 177.210938 128.273438 178.984375 119.261719 174.863281 122.746094 Z M 174.265625 132.550781 C 171.648438 132.804688 172.394531 140.507812 172.886719 142.4375 C 173.542969 141.433594 178.308594 132.164062 174.265625 132.550781 Z M 202.347656 138.039062 C 200.289062 138.65625 207.953125 152.941406 208.722656 154.417969 C 208.949219 149.625 204.660156 142.140625 202.347656 138.039062 Z M 203.679688 195.355469 C 199.398438 196.980469 206.710938 200.480469 208.101562 201.320312 C 212.824219 199.71875 204.660156 194.988281 203.679688 195.355469 Z M 182.175781 86.460938 C 182.257812 82.519531 180.152344 77.667969 178.355469 74.179688 C 177.007812 79.054688 177.785156 83.664062 182.175781 86.460938 Z M 178.128906 119.132812 C 180.734375 118.222656 180.140625 111.089844 176.9375 110.542969 C 176.367188 111.824219 174.316406 120.464844 178.128906 119.132812 Z M 173.046875 160.726562 C 169.007812 154.882812 168.207031 169.09375 168.261719 170.644531 C 170.78125 170.027344 174.539062 162.890625 173.046875 160.726562 Z M 261.335938 74.582031 C 257.253906 72.058594 254.777344 79.738281 255.144531 82.441406 C 257.183594 81.902344 265.769531 77.324219 261.335938 74.582031 Z M 241.304688 220.746094 C 241.339844 216.6875 239.105469 212.921875 236.152344 210.269531 C 234.742188 212.550781 235.8125 215.277344 235.84375 217.738281 C 237.628906 218.769531 239.105469 220.625 241.304688 220.746094 Z M 189.921875 59.660156 C 184.800781 55.15625 185.292969 70.226562 188.664062 70.394531 C 189.664062 68.0625 192.144531 61.617188 189.921875 59.660156 Z M 254.511719 91.800781 C 254.53125 94.207031 257.460938 95.101562 259.457031 94.789062 C 262.097656 94.382812 263.675781 91.914062 263.707031 89.363281 C 261.304688 88.257812 254.484375 87.8125 254.511719 91.800781 Z M 213.421875 116.984375 C 210.09375 120.308594 205.777344 123.101562 204.1875 127.757812 C 209.441406 126.800781 210.804688 120.8125 214.78125 118.054688 C 217.195312 116.382812 224.867188 114.75 222.863281 110.417969 C 218.714844 110.660156 216.113281 114.304688 213.421875 116.984375 Z M 178.429688 87.203125 C 175.78125 93.765625 179.832031 97.890625 185.859375 99.902344 C 186.113281 94.292969 183.132812 90 178.429688 87.203125 Z M 171.3125 157.046875 C 174.378906 159.972656 178.847656 156.460938 179.5 153.027344 C 179.785156 151.527344 179.460938 149.121094 177.613281 148.84375 C 175.605469 148.539062 175.0625 150.988281 174.234375 152.300781 C 173.3125 153.773438 171.925781 154.867188 171.417969 152.484375 C 170.953125 150.300781 172.761719 148.28125 172.210938 146.085938 C 170.582031 149.195312 168.179688 154.050781 171.3125 157.046875 Z M 188.648438 105.140625 C 187.859375 103.25 185.417969 99.363281 182.835938 101.335938 C 180.835938 102.867188 181.835938 106.894531 182.65625 108.765625 C 183.980469 111.800781 186.953125 115.519531 190.726562 114.265625 C 190.289062 111.191406 189.851562 108.027344 188.648438 105.140625 Z M 310.75 285.601562 C 313.648438 286 315.292969 283.300781 314.1875 280.734375 C 312.839844 277.601562 308.902344 277.460938 306.269531 276.023438 C 300.78125 278.660156 306.925781 285.074219 310.75 285.601562 Z M 186.488281 88.933594 C 187.570312 91.621094 188.074219 94.136719 188.128906 97.011719 C 188.15625 98.289062 188.082031 102.226562 190.183594 102.195312 C 193.335938 102.144531 189.0625 90.417969 188.730469 89.367188 C 186.664062 82.871094 184.613281 76.160156 180.691406 70.503906 C 180.636719 77.117188 184.089844 82.976562 186.488281 88.933594 Z M 323.378906 259.675781 C 322.023438 258.84375 320.804688 257.320312 319.035156 257.648438 C 316.023438 258.207031 316.179688 262.5 317.136719 264.628906 C 319.867188 270.664062 327.101562 264.277344 330.1875 261.9375 C 327.878906 261.320312 325.449219 260.949219 323.378906 259.675781 Z M 225.542969 212.210938 C 225.761719 214.597656 230.308594 214.605469 231.824219 215.5625 C 234.945312 207.824219 230.09375 199.992188 225.792969 193.8125 C 224.550781 197.449219 223.476562 202.242188 226.128906 205.539062 C 227.679688 207.46875 232.035156 209.1875 230.679688 212.320312 C 229.664062 212.628906 225.277344 209.261719 225.542969 212.210938 Z M 245.453125 82.4375 C 244.917969 83.660156 242.664062 88.085938 244.0625 89.371094 C 245.886719 91.050781 249.582031 86.957031 250.597656 85.691406 C 253.523438 82.050781 257.476562 73.460938 249.273438 74.214844 C 248.195312 77.039062 246.667969 79.664062 245.453125 82.4375 Z M 180.140625 135.152344 C 177.285156 135.664062 176.511719 139.121094 176.625 141.578125 C 176.78125 144.871094 178.960938 149.160156 182.894531 148.117188 C 186.1875 147.25 187.222656 143.503906 188.515625 140.800781 C 185.90625 139.019531 183.921875 134.476562 180.140625 135.152344 Z M 257.257812 211.625 C 257.523438 207.730469 256.6875 203.371094 254.121094 200.3125 C 251.261719 196.90625 246.726562 196.492188 242.683594 195.5 C 245.914062 201.726562 248.726562 211.382812 257.257812 211.625 Z M 183.507812 157.554688 C 179.472656 160.039062 177.839844 165.230469 177.53125 169.71875 C 177.320312 172.78125 178.015625 178.453125 182.449219 177.011719 C 184.839844 170.972656 187.042969 163.605469 183.507812 157.554688 Z M 190.386719 137.554688 C 194.648438 137.175781 194.34375 133.285156 192.265625 130.5625 C 189.664062 127.164062 184.960938 125.832031 180.964844 124.996094 C 177.972656 130.695312 184.476562 138.074219 190.386719 137.554688 Z M 254.390625 105.121094 C 257.421875 104.632812 261.03125 101.859375 259.230469 98.464844 C 257.820312 95.804688 254.046875 95.371094 251.386719 95.871094 C 247.859375 96.539062 245.441406 99.238281 242.835938 101.480469 C 246.25 103.460938 250.269531 105.785156 254.390625 105.121094 Z M 188.613281 116.433594 C 185.941406 114.683594 181.675781 114.015625 180.988281 118.082031 C 179.738281 125.492188 190.324219 127.6875 195.445312 129.203125 C 195.015625 124.375 192.789062 119.175781 188.613281 116.433594 Z M 243.609375 84.589844 C 245.027344 82.042969 249.273438 74.6875 244.75 72.671875 C 241.894531 71.402344 239.5 76.75 238.640625 78.65625 C 236.082031 84.316406 235.675781 90.765625 234.414062 96.777344 C 239.765625 95.21875 241.210938 88.90625 243.609375 84.589844 Z M 214.042969 193.441406 C 214.875 197.945312 218.628906 200.332031 222.214844 202.636719 C 225.007812 194.441406 221.246094 185.882812 217.082031 178.894531 C 214.832031 183.230469 213.132812 188.511719 214.042969 193.441406 Z M 233.035156 181.738281 C 235.066406 189.042969 243.511719 197.378906 251.648438 194.320312 C 252.253906 185.136719 240.644531 181.238281 233.035156 181.738281 Z M 256.367188 109.519531 C 255.757812 107.578125 253.601562 107.285156 251.917969 106.777344 C 247.703125 105.511719 243.335938 103.667969 238.90625 105.097656 C 237.246094 105.632812 234.445312 106.894531 234.953125 109.117188 C 235.296875 110.609375 237.027344 111.101562 238.265625 111.566406 C 242.859375 113.28125 247.707031 114.066406 252.453125 115.230469 C 253.417969 115.46875 254.425781 115.058594 254.929688 114.203125 C 255.8125 112.730469 256.910156 111.230469 256.367188 109.519531 Z M 193.785156 62.722656 C 191.128906 64.65625 191.402344 68.679688 191.410156 71.570312 C 191.425781 75.515625 191.765625 79.414062 192.296875 83.320312 C 192.671875 86.09375 192.925781 89.359375 195.175781 91.339844 C 197.542969 87.398438 197.199219 82.644531 197.679688 78.25 C 198.21875 73.375 199.589844 68.640625 200.722656 63.878906 C 198.773438 62.417969 196.035156 61.078125 193.785156 62.722656 Z M 204.359375 183.480469 C 203.984375 186.046875 203.511719 188.730469 204.804688 191.128906 C 205.789062 192.957031 208.222656 195.472656 210.546875 194.414062 C 212.617188 193.46875 212.214844 190.683594 212.277344 188.828125 C 212.386719 185.488281 213.097656 182.210938 213.449219 178.894531 C 213.757812 175.9375 213.757812 172.9375 212.6875 170.121094 C 211.625 167.324219 209.722656 164.957031 208.25 162.382812 C 206.425781 169.308594 205.402344 176.40625 204.359375 183.480469 Z M 186.722656 158.054688 C 186.320312 161.664062 186.671875 165.3125 186.207031 168.917969 C 185.851562 171.601562 184.636719 174.542969 185.578125 177.226562 C 186.492188 179.851562 189.546875 181.210938 191.636719 178.941406 C 193.917969 176.460938 192.730469 172.320312 192.683594 169.351562 C 192.558594 161.679688 195.015625 154.214844 195.109375 146.550781 C 189.414062 146.988281 187.265625 153.230469 186.722656 158.054688 Z M 252.832031 119.75 C 251.691406 116.777344 247.964844 116.78125 245.367188 116.117188 C 241.996094 115.246094 238.914062 113.246094 235.390625 112.980469 C 232.46875 112.757812 229.738281 113.886719 227.265625 115.328125 C 225.1875 116.546875 222.042969 118.878906 224.695312 121.292969 C 226.601562 123.023438 229.894531 122.242188 232.238281 122.542969 C 238.125 123.296875 243.441406 127.140625 249.429688 126.933594 C 250.4375 126.902344 251.332031 126.289062 251.722656 125.359375 C 252.488281 123.542969 253.566406 121.664062 252.832031 119.75 Z M 208.882812 112.550781 C 209.644531 106.429688 210.957031 100.371094 212.300781 94.351562 C 213.457031 89.171875 214.90625 84.074219 216.175781 78.921875 C 216.761719 76.535156 217.316406 74.011719 217.136719 71.539062 C 216.972656 69.25 215.683594 66.628906 212.917969 67.617188 C 210.328125 68.535156 209.984375 72.25 209.777344 74.550781 C 208.964844 83.488281 207.535156 92.3125 206.464844 101.226562 C 205.941406 105.570312 205.640625 110.074219 204.3125 114.261719 C 203.613281 116.476562 201.71875 120.75 204.203125 122.519531 C 208.425781 121.410156 208.449219 116.03125 208.882812 112.550781 Z M 199.59375 115.8125 C 202.183594 117.210938 202.671875 112.769531 202.859375 111.199219 C 203.914062 102.425781 204.195312 93.59375 205.820312 84.894531 C 206.328125 82.175781 212.378906 63.65625 205.152344 64.910156 C 201.671875 65.515625 201.324219 71.664062 200.9375 74.246094 C 200.296875 78.519531 199.6875 82.769531 198.808594 87 C 197.386719 93.863281 195.898438 101.496094 199.40625 108 C 198.792969 109.972656 197.105469 114.472656 199.59375 115.8125 Z M 229.679688 72.503906 C 228.382812 73.988281 228.246094 76.246094 227.785156 78.082031 C 227.3125 79.980469 226.703125 81.839844 226.210938 83.734375 C 225.09375 88.066406 224.644531 92.667969 223.003906 96.851562 C 222.113281 99.125 219.410156 103.113281 221.820312 105.363281 C 224.730469 108.078125 229.566406 101.082031 230.902344 99.0625 C 233.371094 95.328125 234.515625 90.949219 235.628906 86.667969 C 236.824219 82.082031 237.984375 77.472656 238.574219 72.765625 C 235.886719 71.523438 232.09375 69.757812 229.679688 72.503906 Z M 248.300781 172.179688 C 246.65625 169.214844 243.230469 168.664062 240.230469 167.871094 C 236.453125 166.878906 232.796875 165.480469 229.039062 164.421875 C 226.878906 163.808594 223.910156 163.050781 222.5 165.417969 C 220.257812 169.1875 225.898438 174.007812 228.496094 176.019531 C 231.5 178.351562 235.105469 179.351562 238.6875 180.425781 C 242 181.417969 245.46875 182.765625 248.984375 182.132812 C 249.074219 178.863281 249.972656 175.203125 248.300781 172.179688 Z M 204.722656 162.226562 C 204.972656 155.441406 203.949219 148.113281 199.148438 142.941406 C 196.210938 146.089844 197.070312 150.761719 197.074219 154.664062 C 197.082031 159.226562 196.605469 163.84375 195.671875 168.3125 C 194.863281 172.1875 193.035156 176.167969 193.605469 180.199219 C 194.140625 183.945312 196.960938 186.640625 200.289062 188.148438 C 203.125 179.839844 204.402344 170.980469 204.722656 162.226562 Z M 218.917969 72.628906 C 216.628906 76.65625 217.046875 81.871094 216.347656 86.308594 C 215.5625 91.320312 214.53125 96.46875 212.878906 101.277344 C 211.757812 104.546875 209.699219 108.117188 210.332031 111.695312 C 211.046875 115.707031 214.054688 114.328125 216.078125 112.113281 C 219.402344 108.472656 220.214844 103.464844 221.230469 98.824219 C 223.324219 89.28125 227.65625 79.925781 227.113281 69.972656 C 223.847656 69.402344 220.71875 69.460938 218.917969 72.628906 Z M 398.636719 316.097656 C 404.566406 317.769531 410.410156 319.722656 416.324219 321.453125 C 427.152344 324.621094 438.046875 327.621094 449.109375 329.847656 C 459.976562 332.035156 471 333.332031 482.019531 334.40625 C 493.058594 335.476562 504.273438 335.898438 515.089844 338.511719 C 519.628906 339.609375 528.566406 343.8125 531.300781 337.695312 C 525.675781 334.734375 519.113281 334.921875 512.945312 334.414062 C 506.84375 333.917969 500.769531 333.105469 494.675781 332.511719 C 472.1875 330.3125 449.539062 328.878906 427.441406 323.886719 C 416.390625 321.386719 405.355469 318.257812 395.089844 313.390625 C 392.492188 312.164062 382.875 305.3125 380.851562 309.757812 C 386.148438 313.320312 392.601562 314.394531 398.636719 316.097656 Z M 246.648438 156.824219 C 243.929688 154.628906 239.691406 153.402344 236 152.703125 C 231.410156 151.828125 226.875 150.445312 222.480469 148.878906 C 220.109375 148.035156 216.300781 146.746094 213.976562 148.707031 C 211.34375 150.917969 214.410156 153.871094 215.886719 155.871094 C 218.179688 158.976562 221.027344 161.410156 224.804688 162.460938 C 229.152344 163.667969 234.003906 164.007812 238.277344 165.550781 C 241.070312 166.5625 244.222656 168.21875 247.132812 166.289062 C 248.617188 163.367188 249.277344 158.949219 246.648438 156.824219 Z M 249.648438 130.589844 C 247.222656 127.152344 242.011719 127.054688 238.351562 126.234375 C 233.8125 125.210938 228.542969 123.144531 223.832031 122.890625 C 219.824219 122.671875 217.199219 124.105469 213.933594 126.257812 C 212.0625 127.496094 208.363281 129.144531 210.953125 131 C 214.375 133.449219 218.609375 133.171875 221.828125 133.160156 C 226.265625 133.144531 230.730469 134.4375 234.894531 135.847656 C 238.9375 137.214844 242.925781 139.160156 247.203125 139.601562 C 248.0625 139.691406 248.875 139.199219 249.203125 138.398438 C 250.253906 135.8125 251.414062 133.089844 249.648438 130.589844 Z M 220.164062 134.449219 C 217.082031 133.636719 212.078125 132.878906 209.613281 133.78125 C 205.835938 135.15625 208.417969 140.570312 210.605469 142.890625 C 213.929688 146.410156 219.015625 146.652344 223.527344 147.191406 C 228.292969 147.761719 231.152344 149.191406 237.519531 150.996094 C 240.496094 151.835938 243.664062 154.175781 246.875 152.363281 C 249.96875 150.621094 248.746094 147.339844 248.535156 144.5 C 248.480469 143.796875 248.097656 143.152344 247.496094 142.777344 C 239.125 137.625 229.535156 136.929688 220.164062 134.449219 Z M 592.058594 325.019531 C 578.394531 320.589844 564.425781 317.164062 550.335938 314.378906 C 543.324219 312.996094 536.269531 311.644531 529.128906 311.113281 C 522.425781 310.613281 515.691406 310.898438 508.976562 310.882812 C 494.761719 310.851562 480.554688 310.585938 466.347656 310.238281 C 459.226562 310.058594 452.101562 309.832031 444.976562 309.773438 C 441.734375 309.746094 438.484375 309.785156 435.253906 309.472656 C 432.066406 309.164062 428.855469 308.382812 425.644531 308.800781 C 432.34375 312.265625 440.109375 311.472656 447.390625 311.578125 C 455.265625 311.691406 463.085938 312.6875 470.90625 313.539062 C 499.628906 316.671875 528.398438 319.347656 557.09375 322.761719 C 564.019531 323.582031 570.96875 324.464844 577.753906 326.125 C 584.582031 327.796875 591.136719 330.34375 597.796875 332.5625 C 604.71875 334.871094 611.9375 336.523438 618.542969 339.683594 C 621.726562 341.207031 624.726562 343.316406 628.230469 344.042969 C 631.046875 344.628906 633.902344 344.175781 636.65625 343.492188 C 622.335938 336.105469 607.378906 329.988281 592.058594 325.019531 Z M 379.960938 291.1875 C 396.6875 293.078125 413.550781 294.003906 430.378906 293.140625 C 459.347656 291.648438 488.167969 286.828125 517.242188 287.773438 C 532.238281 288.265625 547.074219 290.828125 561.667969 294.207031 C 569.09375 295.929688 576.550781 297.660156 583.757812 300.160156 C 587.511719 301.464844 591.171875 303.15625 595.105469 303.855469 C 598.542969 304.46875 602.050781 304.328125 605.523438 304.242188 C 602.121094 301.726562 597.804688 301.226562 593.863281 300.015625 C 589.800781 298.769531 586.015625 296.800781 582.09375 295.191406 C 574.359375 292.019531 566.257812 289.796875 558.09375 288.03125 C 529.371094 281.828125 499.738281 283.691406 470.628906 285.324219 C 455.113281 286.191406 439.679688 288.09375 424.171875 289.078125 C 416.644531 289.554688 409.089844 289.605469 401.574219 290.324219 C 397.765625 290.6875 393.964844 291.320312 390.128906 291.21875 C 386.976562 291.136719 383.746094 290.429688 380.648438 291.347656 C 380.417969 291.292969 380.1875 291.242188 379.960938 291.1875 Z M 249.609375 214.472656 C 244.828125 208.910156 240.808594 202.757812 236.671875 196.71875 C 232.144531 190.109375 227.65625 183.46875 223.101562 176.875 C 221.238281 174.171875 219.292969 171.507812 217.734375 168.613281 C 216.257812 165.871094 215.195312 162.777344 212.863281 160.605469 C 208.984375 164.265625 215.957031 170.378906 218.078125 173.078125 C 223.425781 179.898438 227.007812 187.960938 231.601562 195.273438 C 236.433594 202.972656 241.582031 210.519531 247.308594 217.585938 C 249.996094 220.90625 252.863281 224.238281 256.574219 226.457031 C 258.300781 227.480469 261.832031 228.703125 260.925781 231.363281 C 259.859375 230.871094 258.789062 230.375 257.71875 229.882812 C 256.863281 233.636719 262.070312 235.085938 264.488281 236.511719 C 269.296875 239.347656 272.714844 244.109375 277.855469 246.460938 C 277.289062 242.800781 273.644531 241.070312 271.082031 238.929688 C 267.695312 236.097656 265.269531 232.15625 261.324219 229.996094 C 258.855469 223.871094 253.824219 219.375 249.609375 214.472656 Z M 245.613281 223.28125 C 245.992188 223.488281 247.613281 224.472656 247.609375 224.441406 C 247.039062 223.609375 246.871094 223.019531 245.613281 223.28125 Z M 383.246094 285.300781 C 403.042969 285.902344 422.859375 285.070312 442.601562 283.542969 C 476.5 280.917969 510.839844 276.195312 544.71875 281.484375 C 562.234375 284.222656 579.070312 289.914062 595.796875 295.605469 C 603.765625 298.316406 611.941406 301.003906 619.152344 305.429688 C 620.699219 306.378906 623.832031 308.671875 621.574219 310.660156 C 620.0625 311.984375 617.304688 310.996094 615.617188 310.625 C 607.800781 308.875 599.714844 309.328125 591.859375 307.855469 C 582.671875 306.136719 573.980469 302.425781 564.847656 300.453125 C 547.796875 296.773438 530.179688 296.25 512.800781 295.789062 C 494.875 295.308594 476.933594 295.589844 459.050781 297.03125 C 441.484375 298.441406 423.878906 300.148438 406.234375 299.378906 C 409.644531 302.480469 414.605469 302.125 418.882812 302.425781 C 424.019531 302.792969 429.09375 303.753906 434.21875 304.28125 C 444.042969 305.289062 453.9375 305.457031 463.804688 305.546875 C 483.550781 305.71875 503.328125 304.933594 523.050781 306.132812 C 540.640625 307.203125 557.8125 311.210938 574.855469 315.449219 C 592.09375 319.734375 609.050781 325.21875 625.175781 332.714844 C 629.359375 334.664062 633.40625 336.921875 637.6875 338.664062 C 641.066406 340.035156 645.308594 340.683594 647.910156 343.460938 C 650.03125 345.726562 649.570312 348.523438 646.441406 349.460938 C 642.914062 350.519531 638.765625 349.445312 635.175781 349.234375 C 630.984375 348.988281 626.792969 348.84375 622.75 347.601562 C 618.714844 346.351562 614.953125 344.320312 611.070312 342.6875 C 602.988281 339.296875 594.585938 336.640625 586.09375 334.496094 C 568.875 330.144531 551.175781 328.324219 533.601562 326.039062 C 515.589844 323.699219 497.574219 321.363281 479.46875 319.878906 C 461.855469 318.429688 444.160156 317.6875 426.703125 314.769531 C 417.851562 313.285156 409.019531 311.582031 400.34375 309.269531 C 395.648438 308.019531 390.988281 306.589844 386.457031 304.828125 C 382.832031 303.414062 379.191406 301.585938 375.214844 301.558594 C 385.289062 305.8125 395.789062 308.9375 406.324219 311.824219 C 427.960938 317.757812 449.65625 321.628906 471.933594 324.175781 C 482.871094 325.425781 493.875 326.148438 504.796875 327.527344 C 514.539062 328.761719 524.042969 330.992188 533.65625 332.914062 C 538.617188 333.902344 543.636719 334.746094 548.429688 336.421875 C 550.054688 336.996094 552.898438 337.804688 553.8125 339.453125 C 555.21875 341.996094 551.34375 342.570312 549.628906 342.636719 C 545.125 342.820312 540.605469 342.371094 536.09375 342.574219 C 530.800781 342.816406 525.535156 343.035156 520.238281 342.832031 C 509.335938 342.414062 498.574219 340.390625 487.753906 339.105469 C 465.664062 336.472656 443.785156 333.644531 422.136719 328.375 C 400.671875 323.152344 379.632812 316.160156 359.40625 307.285156 C 349.96875 303.148438 339.96875 299.058594 331.449219 293.199219 C 329.214844 291.667969 327.109375 289.957031 325.175781 288.058594 C 324.003906 286.90625 322.636719 285.039062 320.832031 284.914062 C 318.488281 284.75 317.921875 287.183594 316.898438 288.730469 C 316.019531 290.058594 314.734375 291.058594 313.117188 291.242188 C 309.929688 291.601562 306.808594 289.132812 304.191406 287.667969 C 301.335938 286.078125 297.511719 284.273438 297.085938 280.601562 C 296.589844 276.335938 301.144531 275.171875 302.667969 271.882812 C 304.152344 268.675781 301.066406 266.484375 298.644531 265.003906 C 290.210938 259.847656 281.882812 254.511719 273.882812 248.691406 C 264.914062 242.164062 256.050781 235.605469 246.566406 229.828125 C 237.171875 224.109375 227.621094 218.664062 218.296875 212.832031 C 209.007812 207.023438 199.933594 200.867188 190.605469 195.125 C 185.976562 192.273438 181.242188 189.578125 176.304688 187.296875 C 172.363281 185.472656 167.613281 184.617188 163.96875 182.253906 C 160.199219 179.808594 160.074219 176 161.433594 172.089844 C 163.070312 167.363281 164.777344 162.851562 165.71875 157.910156 C 167.730469 147.34375 168.339844 136.433594 169.414062 125.742188 C 170.503906 114.910156 171.472656 104.0625 171.988281 93.1875 C 172.484375 82.777344 173.027344 72.121094 171.167969 61.820312 C 170.289062 56.980469 168.96875 52.25 167.570312 47.542969 C 166.828125 45.023438 166.054688 40.519531 170.246094 42.144531 C 172.542969 43.039062 174.300781 45.007812 176.226562 46.472656 C 178.085938 47.894531 180.089844 49.125 182.128906 50.269531 C 186.890625 52.9375 191.933594 55.09375 197.066406 56.953125 C 207.363281 60.671875 218.054688 63.539062 228.777344 65.726562 C 239.359375 67.894531 250.316406 69.734375 261.15625 69.445312 C 264.867188 69.347656 283.296875 66.34375 278.640625 75.511719 C 276.867188 79.003906 273.519531 81.554688 271.394531 84.847656 C 268.539062 89.285156 266.199219 94.03125 264.195312 98.90625 C 260.054688 108.972656 257.035156 119.601562 255.082031 130.296875 C 248.625 165.722656 255.171875 204.558594 276.226562 234.183594 C 282.128906 242.496094 289.410156 249.507812 296.726562 256.554688 C 299.429688 259.15625 302.347656 262.878906 306.066406 264.023438 C 310.449219 265.375 312.132812 261.390625 313.269531 257.996094 C 314.320312 254.851562 316.316406 251.074219 320.152344 251.105469 C 322.714844 251.128906 324.238281 253.03125 326.171875 254.375 C 328.058594 255.683594 330.257812 255.804688 332.257812 256.808594 C 335.839844 258.609375 335.980469 262.855469 334.375 266.121094 C 332.441406 270.054688 328.230469 271.867188 324.597656 273.867188 C 342.28125 283.953125 363.394531 284.703125 383.246094 285.300781 " fill-opacity="1" fill-rule="nonzero"/></g></g></g><g fill="#000000" fill-opacity="1"><g transform="translate(312.898293, 227.134123)"><g><path d="M 87.59375 -125.484375 C 77.414062 -125.484375 69.472656 -121.3125 63.765625 -112.96875 C 58.066406 -104.632812 55.21875 -93.144531 55.21875 -78.5 C 55.21875 -48.039062 66.800781 -32.8125 89.96875 -32.8125 C 96.96875 -32.8125 103.75 -33.785156 110.3125 -35.734375 C 116.882812 -37.679688 123.492188 -40.023438 130.140625 -42.765625 L 130.140625 -6.609375 C 116.929688 -0.753906 101.988281 2.171875 85.3125 2.171875 C 61.425781 2.171875 43.113281 -4.753906 30.375 -18.609375 C 17.632812 -32.472656 11.265625 -52.507812 11.265625 -78.71875 C 11.265625 -95.09375 14.347656 -109.488281 20.515625 -121.90625 C 26.691406 -134.320312 35.570312 -143.867188 47.15625 -150.546875 C 58.738281 -157.222656 72.359375 -160.5625 88.015625 -160.5625 C 105.128906 -160.5625 121.476562 -156.84375 137.0625 -149.40625 L 123.96875 -115.734375 C 118.125 -118.484375 112.273438 -120.796875 106.421875 -122.671875 C 100.578125 -124.546875 94.300781 -125.484375 87.59375 -125.484375 Z M 87.59375 -125.484375 "/></g></g><g transform="translate(456.784601, 227.134123)"><g><path d="M 91.8125 0 L 91.8125 -66.90625 C 91.8125 -83.363281 86.941406 -91.59375 77.203125 -91.59375 C 70.265625 -91.59375 65.15625 -88.6875 61.875 -82.875 C 58.59375 -77.070312 56.953125 -67.421875 56.953125 -53.921875 L 56.953125 0 L 14.609375 0 L 14.609375 -168.46875 L 56.953125 -168.46875 L 56.953125 -144.53125 C 56.953125 -133.707031 56.375 -121.367188 55.21875 -107.515625 L 57.171875 -107.515625 C 61.210938 -113.859375 66.007812 -118.328125 71.5625 -120.921875 C 77.125 -123.523438 83.585938 -124.828125 90.953125 -124.828125 C 104.660156 -124.828125 115.320312 -120.875 122.9375 -112.96875 C 130.550781 -105.070312 134.359375 -94.015625 134.359375 -79.796875 L 134.359375 0 Z M 91.8125 0 "/></g></g><g transform="translate(605.326375, 227.134123)"><g><path d="M 101.984375 0 L 96.6875 -15.265625 L 94.1875 -15.265625 C 90.65625 -9.640625 85.726562 -5.328125 79.40625 -2.328125 C 73.09375 0.671875 65.679688 2.171875 57.171875 2.171875 C 43.671875 2.171875 33.164062 -1.742188 25.65625 -9.578125 C 18.15625 -17.410156 14.40625 -28.472656 14.40625 -42.765625 L 14.40625 -122.671875 L 56.734375 -122.671875 L 56.734375 -55.65625 C 56.734375 -47.632812 57.867188 -41.566406 60.140625 -37.453125 C 62.410156 -33.347656 66.144531 -31.296875 71.34375 -31.296875 C 78.632812 -31.296875 83.832031 -34.160156 86.9375 -39.890625 C 90.039062 -45.628906 91.59375 -55.320312 91.59375 -68.96875 L 91.59375 -122.671875 L 133.921875 -122.671875 L 133.921875 0 Z M 101.984375 0 "/></g></g><g transform="translate(753.868149, 227.134123)"><g><path d="M 74.703125 -31.296875 C 80.410156 -31.296875 87.234375 -32.703125 95.171875 -35.515625 L 95.171875 -4.65625 C 89.460938 -2.195312 84.023438 -0.445312 78.859375 0.59375 C 73.703125 1.644531 67.660156 2.171875 60.734375 2.171875 C 46.515625 2.171875 36.265625 -1.3125 29.984375 -8.28125 C 23.710938 -15.25 20.578125 -25.953125 20.578125 -40.390625 L 20.578125 -90.953125 L 5.734375 -90.953125 L 5.734375 -108.15625 L 24.578125 -121.484375 L 35.515625 -147.25 L 63.234375 -147.25 L 63.234375 -122.671875 L 93.328125 -122.671875 L 93.328125 -90.953125 L 63.234375 -90.953125 L 63.234375 -43.203125 C 63.234375 -35.265625 67.054688 -31.296875 74.703125 -31.296875 Z M 74.703125 -31.296875 "/></g></g><g transform="translate(855.855285, 227.134123)"><g><path d="M 57.171875 0 L 14.828125 0 L 14.828125 -122.671875 L 57.171875 -122.671875 Z M 13.75 -153.203125 C 13.75 -159.554688 15.515625 -164.28125 19.046875 -167.375 C 22.585938 -170.476562 28.289062 -172.03125 36.15625 -172.03125 C 44.03125 -172.03125 49.769531 -170.441406 53.375 -167.265625 C 56.988281 -164.097656 58.796875 -159.410156 58.796875 -153.203125 C 58.796875 -140.785156 51.25 -134.578125 36.15625 -134.578125 C 21.21875 -134.578125 13.75 -140.785156 13.75 -153.203125 Z M 13.75 -153.203125 "/></g></g></g></svg>